<mxfile host="65bd71144e">
    <diagram id="2ETDcY1eeTD1ox8qQBwi" name="Page-1">
        <mxGraphModel dx="832" dy="2675" grid="1" gridSize="10" guides="1" tooltips="1" connect="1" arrows="1" fold="1" page="1" pageScale="1" pageWidth="850" pageHeight="1100" math="0" shadow="0">
            <root>
                <mxCell id="0"/>
                <mxCell id="1" parent="0"/>
                <mxCell id="4" style="edgeStyle=none;html=1;exitX=0.25;exitY=1;exitDx=0;exitDy=0;entryX=0.75;entryY=0;entryDx=0;entryDy=0;" edge="1" parent="1" source="2" target="3">
                    <mxGeometry relative="1" as="geometry"/>
                </mxCell>
                <mxCell id="6" style="edgeStyle=none;html=1;exitX=1;exitY=1;exitDx=0;exitDy=0;" edge="1" parent="1" source="2" target="5">
                    <mxGeometry relative="1" as="geometry"/>
                </mxCell>
                <mxCell id="10" style="edgeStyle=none;html=1;exitX=1;exitY=0.5;exitDx=0;exitDy=0;entryX=0.004;entryY=0.568;entryDx=0;entryDy=0;entryPerimeter=0;" edge="1" parent="1" source="2" target="8">
                    <mxGeometry relative="1" as="geometry"/>
                </mxCell>
                <mxCell id="2" value="Clase padre&lt;br&gt;Atributos&lt;br&gt;&lt;ul&gt;&lt;li style=&quot;text-align: left;&quot;&gt;Numero de llama&lt;/li&gt;&lt;li style=&quot;text-align: left;&quot;&gt;Numero de sector&lt;/li&gt;&lt;li style=&quot;text-align: left;&quot;&gt;Numero de surco&lt;/li&gt;&lt;li style=&quot;text-align: left;&quot;&gt;Numero de polin&lt;/li&gt;&lt;li style=&quot;text-align: left;&quot;&gt;Tipo de plaga&lt;/li&gt;&lt;li style=&quot;text-align: left;&quot;&gt;Posicion&lt;/li&gt;&lt;li style=&quot;text-align: left;&quot;&gt;&amp;nbsp;Nivel&lt;/li&gt;&lt;li style=&quot;&quot;&gt;Nivel de benefico&lt;/li&gt;&lt;/ul&gt;&lt;div style=&quot;text-align: left;&quot;&gt;Metoos&lt;/div&gt;&lt;div style=&quot;text-align: right;&quot;&gt;Evaluar()&lt;/div&gt;&lt;div style=&quot;text-align: right;&quot;&gt;Enviar()&lt;/div&gt;&lt;div style=&quot;text-align: right;&quot;&gt;Crear()&lt;/div&gt;&lt;div style=&quot;text-align: right;&quot;&gt;Eliminar()&lt;/div&gt;&lt;div style=&quot;text-align: right;&quot;&gt;Editar()&lt;/div&gt;&lt;div style=&quot;text-align: right;&quot;&gt;Bucar()&lt;/div&gt;&lt;div style=&quot;text-align: right;&quot;&gt;Modificar()&lt;/div&gt;&lt;div style=&quot;text-align: right;&quot;&gt;GuardarLocal()&lt;/div&gt;" style="whiteSpace=wrap;html=1;fillColor=#60a917;fontColor=#ffffff;strokeColor=#2D7600;" parent="1" vertex="1">
                    <mxGeometry x="240" y="-1120" width="270" height="420" as="geometry"/>
                </mxCell>
                <mxCell id="3" value="Class:VentanaEmergente&lt;br&gt;Atributo heredas&amp;nbsp;&lt;br&gt;&lt;ul&gt;&lt;li style=&quot;text-align: left;&quot;&gt;Numero de llama&lt;/li&gt;&lt;li style=&quot;text-align: left;&quot;&gt;Numero de sector&lt;/li&gt;&lt;li style=&quot;text-align: left;&quot;&gt;Numero de surco&lt;/li&gt;&lt;li style=&quot;text-align: left;&quot;&gt;Numero de polin&lt;/li&gt;&lt;li style=&quot;text-align: left;&quot;&gt;Tipo de plaga&lt;/li&gt;&lt;li style=&quot;text-align: left;&quot;&gt;Posicion&lt;/li&gt;&lt;li style=&quot;text-align: left;&quot;&gt;&amp;nbsp;Nivel&lt;/li&gt;&lt;li&gt;Nivel de benefico&lt;/li&gt;&lt;/ul&gt;&lt;div&gt;Metos heredados&lt;/div&gt;&lt;div&gt;GuardarLocal()&lt;/div&gt;&lt;div&gt;Modificar()&lt;/div&gt;&lt;div&gt;Evaluar()&lt;/div&gt;&lt;div&gt;Editar()&lt;/div&gt;&lt;div&gt;Crear()&lt;/div&gt;&lt;div&gt;&lt;br&gt;&lt;/div&gt;" style="whiteSpace=wrap;html=1;fillColor=#1ba1e2;fontColor=#ffffff;strokeColor=#006EAF;" vertex="1" parent="1">
                    <mxGeometry x="60" y="-660" width="290" height="310" as="geometry"/>
                </mxCell>
                <mxCell id="5" value="Class:Buscador&lt;br&gt;Atributo heredas&amp;nbsp;&lt;br&gt;&lt;ul&gt;&lt;li style=&quot;text-align: left;&quot;&gt;Numero de llama&lt;/li&gt;&lt;li style=&quot;text-align: left;&quot;&gt;Numero de sector&lt;/li&gt;&lt;li style=&quot;text-align: left;&quot;&gt;Numero de surco&lt;/li&gt;&lt;li style=&quot;text-align: left;&quot;&gt;Numero de polin&lt;/li&gt;&lt;li style=&quot;text-align: left;&quot;&gt;Tipo de plaga&lt;/li&gt;&lt;li style=&quot;text-align: left;&quot;&gt;Posicion&lt;/li&gt;&lt;li style=&quot;text-align: left;&quot;&gt;&amp;nbsp;Nivel&lt;/li&gt;&lt;li&gt;Nivel de benefico&lt;/li&gt;&lt;/ul&gt;&lt;div&gt;Metodos heredados&lt;/div&gt;&lt;div&gt;Evaluar()&lt;/div&gt;&lt;div&gt;Buscar()&lt;/div&gt;&lt;div&gt;&lt;br&gt;&lt;/div&gt;&lt;div&gt;&lt;br&gt;&lt;/div&gt;&lt;div&gt;&lt;br&gt;&lt;/div&gt;" style="whiteSpace=wrap;html=1;fillColor=#1ba1e2;fontColor=#ffffff;strokeColor=#006EAF;" vertex="1" parent="1">
                    <mxGeometry x="470" y="-670" width="290" height="310" as="geometry"/>
                </mxCell>
                <mxCell id="8" value="CrearBitacora&lt;br&gt;Atributo heredas&amp;nbsp;&lt;br&gt;&lt;ul&gt;&lt;li style=&quot;text-align: left;&quot;&gt;Numero de llama&lt;/li&gt;&lt;li style=&quot;text-align: left;&quot;&gt;Numero de sector&lt;/li&gt;&lt;li style=&quot;text-align: left;&quot;&gt;Numero de surco&lt;/li&gt;&lt;li style=&quot;text-align: left;&quot;&gt;Numero de polin&lt;/li&gt;&lt;li style=&quot;text-align: left;&quot;&gt;Tipo de plaga&lt;/li&gt;&lt;li style=&quot;text-align: left;&quot;&gt;Posicion&lt;/li&gt;&lt;li style=&quot;text-align: left;&quot;&gt;&amp;nbsp;Nivel&lt;/li&gt;&lt;li&gt;Nivel de benefico&lt;/li&gt;&lt;/ul&gt;&lt;div&gt;Evaluar()&lt;/div&gt;&lt;div&gt;Crear()&lt;/div&gt;&lt;div&gt;Eliminar()&lt;/div&gt;&lt;div&gt;Modificar()&lt;/div&gt;&lt;div&gt;GuardarLocal()&lt;/div&gt;" style="whiteSpace=wrap;html=1;fillColor=#1ba1e2;fontColor=#ffffff;strokeColor=#006EAF;" vertex="1" parent="1">
                    <mxGeometry x="630" y="-1050" width="510" height="340" as="geometry"/>
                </mxCell>
            </root>
        </mxGraphModel>
    </diagram>
</mxfile>